{
  "accessors": [
    {
      "bufferView": 2,
      "componentType": 5126,
      "count": 108,
      "max": [
        1.6532320976257324,
        0.6203651428222656,
        3.449620008468628
      ],
      "min": [
        -1.9961788654327393,
        -0.6203651428222656,
        0.045171141624450684
      ],
      "type": "VEC3"
    },
    {
      "bufferView": 2,
      "byteOffset": 1296,
      "componentType": 5126,
      "count": 108,
      "max": [
        0.8535522818565369,
        0.9984195232391357,
        0.9850311875343323
      ],
      "min": [
        -0.8720405697822571,
        -0.9984195232391357,
        -0.9583181142807007
      ],
      "type": "VEC3"
    },
    {
      "bufferView": 1,
      "componentType": 5126,
      "count": 108,
      "max": [
        0.625,
        1.0
      ],
      "min": [
        0.125,
        0.0
      ],
      "type": "VEC2"
    },
    {
      "bufferView": 0,
      "componentType": 5125,
      "count": 156,
      "type": "SCALAR"
    },
    {
      "bufferView": 2,
      "byteOffset": 2592,
      "componentType": 5126,
      "count": 6464,
      "max": [
        15.951030731201172,
        11.928411483764648,
        4.015901565551758
      ],
      "min": [
        -1.3088486194610596,
        -1.0781917572021484,
        -3.558274507522583
      ],
      "type": "VEC3"
    },
    {
      "bufferView": 2,
      "byteOffset": 80160,
      "componentType": 5126,
      "count": 6464,
      "max": [
        0.9999997019767761,
        0.9999944567680359,
        1.0
      ],
      "min": [
        -0.9999991655349731,
        -1.0,
        -1.0
      ],
      "type": "VEC3"
    },
    {
      "bufferView": 1,
      "byteOffset": 864,
      "componentType": 5126,
      "count": 6464,
      "max": [
        1.0161607265472412,
        1.000000238418579
      ],
      "min": [
        -0.018436089158058167,
        -0.004699941258877516
      ],
      "type": "VEC2"
    },
    {
      "bufferView": 0,
      "byteOffset": 624,
      "componentType": 5125,
      "count": 35328,
      "type": "SCALAR"
    },
    {
      "bufferView": 2,
      "byteOffset": 157728,
      "componentType": 5126,
      "count": 80,
      "max": [
        0.7071067094802856,
        0.7071068286895752,
        0.2800000309944153
      ],
      "min": [
        -0.7071069478988647,
        -0.7071071863174438,
        -0.2800000309944153
      ],
      "type": "VEC3"
    },
    {
      "bufferView": 2,
      "byteOffset": 158688,
      "componentType": 5126,
      "count": 80,
      "max": [
        0.9596832394599915,
        0.9596831202507019,
        1.0
      ],
      "min": [
        -0.9596829414367676,
        -0.9596830606460571,
        -1.0
      ],
      "type": "VEC3"
    },
    {
      "bufferView": 0,
      "byteOffset": 141936,
      "componentType": 5125,
      "count": 96,
      "type": "SCALAR"
    },
    {
      "bufferView": 2,
      "byteOffset": 159648,
      "componentType": 5126,
      "count": 80,
      "max": [
        0.7071067094802856,
        0.7071068286895752,
        0.2800000309944153
      ],
      "min": [
        -0.7071069478988647,
        -0.7071071863174438,
        -0.2800000309944153
      ],
      "type": "VEC3"
    },
    {
      "bufferView": 2,
      "byteOffset": 160608,
      "componentType": 5126,
      "count": 80,
      "max": [
        0.9596832394599915,
        0.9596831202507019,
        1.0
      ],
      "min": [
        -0.9596829414367676,
        -0.9596830606460571,
        -1.0
      ],
      "type": "VEC3"
    },
    {
      "bufferView": 0,
      "byteOffset": 142320,
      "componentType": 5125,
      "count": 96,
      "type": "SCALAR"
    },
    {
      "bufferView": 2,
      "byteOffset": 161568,
      "componentType": 5126,
      "count": 80,
      "max": [
        0.7071067094802856,
        0.7071068286895752,
        0.2800000309944153
      ],
      "min": [
        -0.7071069478988647,
        -0.7071071863174438,
        -0.2800000309944153
      ],
      "type": "VEC3"
    },
    {
      "bufferView": 2,
      "byteOffset": 162528,
      "componentType": 5126,
      "count": 80,
      "max": [
        0.9596832394599915,
        0.9596831202507019,
        1.0
      ],
      "min": [
        -0.9596829414367676,
        -0.9596830606460571,
        -1.0
      ],
      "type": "VEC3"
    },
    {
      "bufferView": 0,
      "byteOffset": 142704,
      "componentType": 5125,
      "count": 96,
      "type": "SCALAR"
    },
    {
      "bufferView": 2,
      "byteOffset": 163488,
      "componentType": 5126,
      "count": 80,
      "max": [
        0.7071067094802856,
        0.7071068286895752,
        0.2800000309944153
      ],
      "min": [
        -0.7071069478988647,
        -0.7071071863174438,
        -0.2800000309944153
      ],
      "type": "VEC3"
    },
    {
      "bufferView": 2,
      "byteOffset": 164448,
      "componentType": 5126,
      "count": 80,
      "max": [
        0.9596832394599915,
        0.9596831202507019,
        1.0
      ],
      "min": [
        -0.9596829414367676,
        -0.9596830606460571,
        -1.0
      ],
      "type": "VEC3"
    },
    {
      "bufferView": 0,
      "byteOffset": 143088,
      "componentType": 5125,
      "count": 96,
      "type": "SCALAR"
    },
    {
      "bufferView": 2,
      "byteOffset": 165408,
      "componentType": 5126,
      "count": 80,
      "max": [
        0.7071067094802856,
        0.7071068286895752,
        0.2800000309944153
      ],
      "min": [
        -0.7071069478988647,
        -0.7071071863174438,
        -0.2800000309944153
      ],
      "type": "VEC3"
    },
    {
      "bufferView": 2,
      "byteOffset": 166368,
      "componentType": 5126,
      "count": 80,
      "max": [
        0.9596832394599915,
        0.9596831202507019,
        1.0
      ],
      "min": [
        -0.9596829414367676,
        -0.9596830606460571,
        -1.0
      ],
      "type": "VEC3"
    },
    {
      "bufferView": 0,
      "byteOffset": 143472,
      "componentType": 5125,
      "count": 96,
      "type": "SCALAR"
    },
    {
      "bufferView": 2,
      "byteOffset": 167328,
      "componentType": 5126,
      "count": 80,
      "max": [
        0.7071067094802856,
        0.7071068286895752,
        0.2800000309944153
      ],
      "min": [
        -0.7071069478988647,
        -0.7071071863174438,
        -0.2800000309944153
      ],
      "type": "VEC3"
    },
    {
      "bufferView": 2,
      "byteOffset": 168288,
      "componentType": 5126,
      "count": 80,
      "max": [
        0.9596832394599915,
        0.9596831202507019,
        1.0
      ],
      "min": [
        -0.9596829414367676,
        -0.9596830606460571,
        -1.0
      ],
      "type": "VEC3"
    },
    {
      "bufferView": 0,
      "byteOffset": 143856,
      "componentType": 5125,
      "count": 96,
      "type": "SCALAR"
    },
    {
      "bufferView": 2,
      "byteOffset": 169248,
      "componentType": 5126,
      "count": 26504,
      "max": [
        0.5643520951271057,
        0.9992165565490723,
        2.0413498878479004
      ],
      "min": [
        -0.5643520951271057,
        -2.0342185497283936,
        -0.9992165565490723
      ],
      "type": "VEC3"
    },
    {
      "bufferView": 2,
      "byteOffset": 487296,
      "componentType": 5126,
      "count": 26504,
      "max": [
        1.0,
        1.0,
        1.0
      ],
      "min": [
        -1.0,
        -1.0,
        -1.0
      ],
      "type": "VEC3"
    },
    {
      "bufferView": 1,
      "byteOffset": 52576,
      "componentType": 5126,
      "count": 26504,
      "max": [
        0.8750004768371582,
        1.0000003576278687
      ],
      "min": [
        0.125,
        0.0
      ],
      "type": "VEC2"
    },
    {
      "bufferView": 0,
      "byteOffset": 144240,
      "componentType": 5125,
      "count": 147264,
      "type": "SCALAR"
    }
  ],
  "asset": {
    "extras": {
      "author": "NoLagHere (https://sketchfab.com/NoLagHere)",
      "license": "CC-BY-4.0 (http://creativecommons.org/licenses/by/4.0/)",
      "source": "https://sketchfab.com/3d-models/shopping-bag-cce3843714f74f85858a325f29ec6991",
      "title": "Shopping Bag"
    },
    "generator": "Sketchfab-12.89.0",
    "version": "2.0"
  },
  "bufferViews": [
    {
      "buffer": 0,
      "byteLength": 733296,
      "name": "floatBufferViews",
      "target": 34963
    },
    {
      "buffer": 0,
      "byteLength": 264608,
      "byteOffset": 733296,
      "byteStride": 8,
      "name": "floatBufferViews",
      "target": 34962
    },
    {
      "buffer": 0,
      "byteLength": 805344,
      "byteOffset": 997904,
      "byteStride": 12,
      "name": "floatBufferViews",
      "target": 34962
    }
  ],
  "buffers": [
    {
      "byteLength": 1803248,
      "uri": "scene.bin"
    }
  ],
  "materials": [
    {
      "doubleSided": true,
      "name": "Material.001",
      "pbrMetallicRoughness": {
        "baseColorFactor": [
          0.00699534,
          0.439657,
          0.40724,
          1.0
        ],
        "metallicFactor": 0.0,
        "roughnessFactor": 0.9227812778594222
      }
    },
    {
      "doubleSided": true,
      "name": "Material.002",
      "pbrMetallicRoughness": {
        "baseColorFactor": [
          0.822786,
          1.0,
          0.630757,
          1.0
        ],
        "metallicFactor": 0.0,
        "roughnessFactor": 0.7907789547511446
      }
    },
    {
      "doubleSided": true,
      "name": "Material.003",
      "pbrMetallicRoughness": {
        "baseColorFactor": [
          0.973446,
          0.768151,
          0.254152,
          1.0
        ],
        "metallicFactor": 0.0
      }
    },
    {
      "doubleSided": true,
      "name": "Material.004",
      "pbrMetallicRoughness": {
        "baseColorFactor": [
          0.806953,
          0.0802198,
          0.104617,
          1.0
        ],
        "metallicFactor": 0.0,
        "roughnessFactor": 0.9390000399236375
      }
    }
  ],
  "meshes": [
    {
      "name": "Cube_Material.001_0",
      "primitives": [
        {
          "attributes": {
            "NORMAL": 1,
            "POSITION": 0,
            "TEXCOORD_0": 2
          },
          "indices": 3,
          "material": 0,
          "mode": 4
        }
      ]
    },
    {
      "name": "Plane_Material.002_0",
      "primitives": [
        {
          "attributes": {
            "NORMAL": 5,
            "POSITION": 4,
            "TEXCOORD_0": 6
          },
          "indices": 7,
          "material": 1,
          "mode": 4
        }
      ]
    },
    {
      "name": "Star_Material.003_0",
      "primitives": [
        {
          "attributes": {
            "NORMAL": 9,
            "POSITION": 8
          },
          "indices": 10,
          "material": 2,
          "mode": 4
        }
      ]
    },
    {
      "name": "Star.001_Material.003_0",
      "primitives": [
        {
          "attributes": {
            "NORMAL": 12,
            "POSITION": 11
          },
          "indices": 13,
          "material": 2,
          "mode": 4
        }
      ]
    },
    {
      "name": "Star.002_Material.003_0",
      "primitives": [
        {
          "attributes": {
            "NORMAL": 15,
            "POSITION": 14
          },
          "indices": 16,
          "material": 2,
          "mode": 4
        }
      ]
    },
    {
      "name": "Star.003_Material.003_0",
      "primitives": [
        {
          "attributes": {
            "NORMAL": 18,
            "POSITION": 17
          },
          "indices": 19,
          "material": 2,
          "mode": 4
        }
      ]
    },
    {
      "name": "Star.004_Material.003_0",
      "primitives": [
        {
          "attributes": {
            "NORMAL": 21,
            "POSITION": 20
          },
          "indices": 22,
          "material": 2,
          "mode": 4
        }
      ]
    },
    {
      "name": "Star.005_Material.003_0",
      "primitives": [
        {
          "attributes": {
            "NORMAL": 24,
            "POSITION": 23
          },
          "indices": 25,
          "material": 2,
          "mode": 4
        }
      ]
    },
    {
      "name": "Cube.001_Material.004_0",
      "primitives": [
        {
          "attributes": {
            "NORMAL": 27,
            "POSITION": 26,
            "TEXCOORD_0": 28
          },
          "indices": 29,
          "material": 3,
          "mode": 4
        }
      ]
    }
  ],
  "nodes": [
    {
      "children": [
        1
      ],
      "matrix": [
        1.0,
        0.0,
        0.0,
        0.0,
        0.0,
        2.220446049250313e-16,
        -1.0,
        0.0,
        0.0,
        1.0,
        2.220446049250313e-16,
        0.0,
        0.0,
        0.0,
        0.0,
        1.0
      ],
      "name": "Sketchfab_model"
    },
    {
      "children": [
        2
      ],
      "matrix": [
        0.009999999776482582,
        0.0,
        0.0,
        0.0,
        0.0,
        0.0,
        0.009999999776482582,
        0.0,
        0.0,
        -0.009999999776482582,
        0.0,
        0.0,
        0.0,
        0.0,
        0.0,
        1.0
      ],
      "name": "2b641758f83d4857850e9fa050651dd1.fbx"
    },
    {
      "children": [
        3,
        5,
        7,
        9,
        11,
        13,
        15,
        17,
        19,
        21,
        23,
        26,
        29
      ],
      "name": "RootNode"
    },
    {
      "children": [
        4
      ],
      "matrix": [
        100.0,
        0.0,
        0.0,
        0.0,
        0.0,
        -1.629206793918314e-05,
        -99.99999999999868,
        0.0,
        0.0,
        99.99999999999868,
        -1.629206793918314e-05,
        0.0,
        0.0,
        231.10733032226563,
        0.0,
        1.0
      ],
      "name": "Cube"
    },
    {
      "mesh": 0,
      "name": "Cube_Material.001_0"
    },
    {
      "children": [
        6
      ],
      "matrix": [
        7.328893245132344,
        -0.015442628715341114,
        0.19725182280954925,
        0.0,
        0.06033812278867166,
        14.251783537183762,
        -1.1261070020538655,
        0.0,
        -0.3785651090976813,
        1.1199255022602577,
        14.153267761304964,
        0.0,
        -70.76681518554688,
        545.1871948242188,
        -6.951040744781494,
        1.0
      ],
      "name": "Plane"
    },
    {
      "mesh": 1,
      "name": "Plane_Material.002_0"
    },
    {
      "children": [
        8
      ],
      "matrix": [
        45.14046527017287,
        -24.78448971287293,
        6.074544260153609e-07,
        0.0,
        24.784489712872873,
        45.140465270172825,
        2.5845265509522814e-06,
        0.0,
        -6.185061757906336e-07,
        -6.870278038189125e-07,
        17.930601119995092,
        0.0,
        -287.0378112792969,
        654.3773193359375,
        -106.26866912841797,
        1.0
      ],
      "name": "Star"
    },
    {
      "mesh": 2,
      "name": "Star_Material.003_0"
    },
    {
      "children": [
        10
      ],
      "matrix": [
        21.17268577032421,
        -19.377507132642556,
        -4.090218376642069e-07,
        0.0,
        19.487454828418162,
        21.29281928377839,
        8.852305628839319e-07,
        0.0,
        -1.493032434950703e-07,
        -4.723182326262553e-07,
        14.647626876831046,
        0.0,
        -173.08265686035156,
        624.4097900390625,
        -106.26866912841797,
        1.0
      ],
      "name": "Star.001"
    },
    {
      "mesh": 3,
      "name": "Star.001_Material.003_0"
    },
    {
      "children": [
        12
      ],
      "matrix": [
        21.331236802337642,
        -15.86217769134755,
        -9.871612692709764e-08,
        0.0,
        15.862177691347538,
        21.33123680233762,
        1.0885525413405894e-06,
        0.0,
        -3.399787410187802e-07,
        -5.558128643185156e-07,
        15.845793724060044,
        0.0,
        -266.54876708984375,
        514.1422119140625,
        -106.26866912841797,
        1.0
      ],
      "name": "Star.002"
    },
    {
      "mesh": 4,
      "name": "Star.002_Material.003_0"
    },
    {
      "children": [
        14
      ],
      "matrix": [
        23.825090677544654,
        -44.89235601825798,
        8.305127280359851,
        0.0,
        45.654121040854015,
        23.42755399838799,
        -4.3341272992254565,
        0.0,
        3.6995399350548115e-06,
        4.850897407400665,
        26.220925691793276,
        0.0,
        152.27857971191406,
        362.7283020019531,
        231.1282196044922,
        1.0
      ],
      "name": "Star.003"
    },
    {
      "mesh": 5,
      "name": "Star.003_Material.003_0"
    },
    {
      "children": [
        16
      ],
      "matrix": [
        9.755449837256666,
        -26.54223013465925,
        4.91033648355817,
        0.0,
        27.14577655807532,
        9.64710457039993,
        -1.784723286142997,
        0.0,
        1.378475763600879e-07,
        3.121738558875582,
        16.874180045011677,
        0.0,
        205.4404754638672,
        285.22509765625,
        245.46640014648438,
        1.0
      ],
      "name": "Star.004"
    },
    {
      "mesh": 6,
      "name": "Star.004_Material.003_0"
    },
    {
      "children": [
        18
      ],
      "matrix": [
        11.528016407615645,
        -23.553102241501357,
        4.357345032488825,
        0.0,
        23.95276942785603,
        11.335665068835514,
        -2.0971120171406428,
        0.0,
        2.3611228965415346e-06,
        3.377096108049201,
        18.25447883978181,
        0.0,
        104.11006164550781,
        261.37725830078125,
        255.33824157714844,
        1.0
      ],
      "name": "Star.005"
    },
    {
      "mesh": 7,
      "name": "Star.005_Material.003_0"
    },
    {
      "children": [
        20
      ],
      "matrix": [
        0.013842488062719684,
        -0.9033883017472251,
        -18.054137802171883,
        0.0,
        -33.364552282461425,
        -35.10553746988915,
        1.7310205451295062,
        0.0,
        -35.07707954777114,
        33.25413117580526,
        -1.6908559953626268,
        0.0,
        -19.169044494628906,
        383.6218566894531,
        56.57013702392578,
        1.0
      ],
      "name": "Cube.001"
    },
    {
      "mesh": 8,
      "name": "Cube.001_Material.004_0"
    },
    {
      "children": [
        22
      ],
      "matrix": [
        -12.133175002302888,
        -36.535210766826886,
        -92.29281899794279,
        0.0,
        -6.185762169702261,
        93.07733604144173,
        -36.03256668360461,
        0.0,
        99.06827146338716,
        1.3371199093832913,
        -13.553217315625044,
        0.0,
        145.76718139648438,
        924.0241088867188,
        1196.354736328125,
        1.0
      ],
      "name": "TrueIsoCam"
    },
    {
      "name": "Object_22"
    },
    {
      "children": [
        24
      ],
      "matrix": [
        -81.95977473256318,
        405.1111492997275,
        -53.17626485543404,
        -0.0,
        183.19193192678333,
        84.91330574788016,
        364.5415386266968,
        -0.0,
        -365.216976914228,
        -48.320252638572924,
        194.78667980332764,
        -0.0,
        448.9678955078125,
        818.8153076171875,
        774.4346923828125,
        1.0
      ],
      "name": "Area"
    },
    {
      "children": [
        25
      ],
      "matrix": [
        1.0,
        0.0,
        0.0,
        0.0,
        0.0,
        2.220446049250313e-16,
        1.0,
        0.0,
        0.0,
        -1.0,
        2.220446049250313e-16,
        0.0,
        0.0,
        0.0,
        0.0,
        1.0
      ],
      "name": "Object_24"
    },
    {
      "name": "Object_25"
    },
    {
      "children": [
        27
      ],
      "matrix": [
        244.34709739691323,
        1035.7668611944584,
        -74.65615065568635,
        0.0,
        -1016.3879500403791,
        222.80968868772834,
        -235.37984977027722,
        0.0,
        -212.93734613985586,
        125.0396033383992,
        1037.8415487222392,
        0.0,
        -1469.78173828125,
        790.3345336914063,
        -939.9283447265625,
        1.0
      ],
      "name": "Area.001"
    },
    {
      "children": [
        28
      ],
      "matrix": [
        1.0,
        0.0,
        0.0,
        0.0,
        0.0,
        2.220446049250313e-16,
        1.0,
        0.0,
        0.0,
        -1.0,
        2.220446049250313e-16,
        0.0,
        0.0,
        0.0,
        0.0,
        1.0
      ],
      "name": "Object_27"
    },
    {
      "name": "Object_28"
    },
    {
      "children": [
        30
      ],
      "matrix": [
        -248.06557003378657,
        1035.766868196016,
        61.17600262253045,
        0.0,
        1001.9879416902298,
        222.80965938858995,
        290.6343345663111,
        0.0,
        269.3991518505802,
        125.03958324175477,
        -1024.6371236640605,
        0.0,
        939.75146484375,
        502.45379638671875,
        -755.2691650390625,
        1.0
      ],
      "name": "Area.002"
    },
    {
      "children": [
        31
      ],
      "matrix": [
        1.0,
        0.0,
        0.0,
        0.0,
        0.0,
        2.220446049250313e-16,
        1.0,
        0.0,
        0.0,
        -1.0,
        2.220446049250313e-16,
        0.0,
        0.0,
        0.0,
        0.0,
        1.0
      ],
      "name": "Object_30"
    },
    {
      "name": "Object_31"
    }
  ],
  "scene": 0,
  "scenes": [
    {
      "name": "Sketchfab_Scene",
      "nodes": [
        0
      ]
    }
  ]
}
